<?xml version="1.0" encoding="UTF-8"?>
<svg id="Ebene_1" data-name="Ebene 1" xmlns="http://www.w3.org/2000/svg" viewBox="0 0 600 243.77">
  <defs>
    <style>
      .cls-1 {
        fill: #ffeeb6;
        stroke-width: 0px;
      }
    </style>
  </defs>
  <rect class="cls-1" x="227.08" y="7.53" width="47.79" height="188.6"/>
  <path class="cls-1" d="m208.15,97.16v99.38h-31.35v-38.2c-2.31,2.88-4.76,5.64-7.38,8.17-2.31,2.32-4.76,4.5-7.34,6.51-16.15,13.02-36.71,20.85-59.15,20.85-52.26,0-94.65-42.44-94.65-94.79S50.68,4.29,102.93,4.29c45.27,0,83.08,31.77,92.42,74.25h-43.57c-8.03-19.1-26.89-32.47-48.85-32.47-29.21,0-52.96,23.73-52.96,53.01s23.75,53.02,52.96,53.02c10.87,0,20.91-3.24,29.29-8.83,3.19-2.14,6.16-4.59,8.82-7.34,2.18-2.32,4.19-4.76,5.94-7.38h-38.11v-31.38h99.27Z"/>
  <path class="cls-1" d="m429.75,196.55h-47.29v-14.74s-41.1,19.04-64.08,13.01c-14.69-3.85-23.67-14.18-24.16-28.98-.95-28.83-.28-57.71-.28-87.22h48.52c0,16.87-.01,33.53,0,50.18,0,6.25-.22,12.52.19,18.75.76,11.62,6.38,17,17.33,17.2,11.83.2,19.86-5.72,20.58-16.71.8-12.12.34-24.33.38-36.5.04-10.78,0-21.56,0-32.94h48.82l-.02,117.96Z"/>
  <polygon class="cls-1" points="588.43 78.66 521.06 240.8 471.8 240.8 490.36 196.13 441.54 78.66 490.79 78.66 514.99 136.89 539.19 78.66 588.43 78.66"/>
</svg>