<svg xmlns="http://www.w3.org/2000/svg" data-name="Ebene 1" viewBox="0 0 566.05 141.89"><path d="M171.17 96.73h-4.53V42.35h4.53zm41.57-54.23v54.49h4.54V49.5l29.55 47.49h6.77V42.5h-4.54v49.49L218.27 42.5h-5.54Zm57.57 49.95V47.04h13.62c7.93 0 15.85 3.23 15.85 11.39v22.7c0 8.08-7.93 11.31-15.85 11.31h-13.62Zm13.62 4.54c10.24 0 20.4-4.69 20.4-15.85v-22.7c0-11.24-10.16-15.93-20.4-15.93h-18.16V97h18.16Zm29.32-54.49v38.56c0 22.63 40.87 22.63 40.87 0V42.5h-4.54v38.56c0 16.55-31.79 16.55-31.79 0V42.5zm55.49 13.24c.92-12.78 24.78-12.93 29.55-2.23l4.08-1.85c-6.46-14.78-37.48-13.7-38.1 3.93-.85 21.7 35.33 8.85 33.71 27.71-1.08 13.08-25.55 13.24-30.4 2.23h-.08l-4.08 1.85c6.62 15.24 38.17 14.08 39.1-3.93 1.15-24.01-34.94-10.7-33.79-27.71Zm37.87-13.31v4.54h18.16V97h4.54V46.97h18.16v-4.54H406.6Zm52.26 27.32v-22.7h16.09c7.93-.15 13.62 2.77 13.62 11.31s-5.23 11.39-13.62 11.39zm15.93 4.16h.15c9.77 0 18.16-4.23 18.16-15.55-.23-11.31-8-15.85-18.24-15.85h-20.55V97h4.54V73.91h10.39L487.57 97h5.46l-18.24-23.09Zm64.73-31.4h-5.39l-15.85 28.63-15.93-28.63h-5.31l18.93 33.17V97h4.54V75.68zm-370.35 73.53c-4.31-.01-8.4-.82-12.28-2.47-3.88-1.63-7.35-4-10.36-7.14-3.11-3.25-5.47-6.88-7.09-10.89-1.6-3.95-2.41-8.12-2.42-12.48v-.2c.03-4.39.86-8.56 2.47-12.51 1.63-3.96 4.01-7.59 7.14-10.88 3.03-3.06 6.51-5.42 10.4-7.07.56-.24 1.16-.43 1.74-.63v5.36c-3.02 1.35-5.75 3.3-8.22 5.9-5.13 5.39-7.7 11.99-7.72 19.81s2.52 14.44 7.63 19.85c5.1 5.41 11.35 8.13 18.72 8.14 1.31 0 2.58-.09 3.81-.25 5.7-.79 10.65-3.4 14.84-7.84 4.4-4.64 6.91-10.17 7.54-16.57.1-1.04.15-2.12.16-3.2 0-4.1-.67-7.84-2.05-11.25-1.26-3.17-3.1-6.04-5.56-8.63-2.07-2.2-4.34-3.94-6.78-5.25-.47-.24-.93-.49-1.42-.69v-5.36c.63.21 1.26.41 1.88.67 3.88 1.67 7.33 4.04 10.36 7.12 1.75 1.81 3.26 3.77 4.54 5.86.95 1.55 1.77 3.19 2.43 4.88 1.6 4.01 2.39 8.27 2.38 12.8-.01 4.47-.82 8.71-2.44 12.71-1.61 3.98-3.96 7.55-7.03 10.71-3.05 3.12-6.51 5.48-10.4 7.09-3.89 1.63-8 2.42-12.29 2.41Z" style="fill-rule:evenodd;fill:#0e2638"/><path d="M105.13 42.67v38.99c-3.27 2.05-8.9 1.74-8.9-3.38V42.67H79.45v35.72c-.1 8.7 4.5 13.82 11.05 16.58 4.09 1.54 10.85 1.64 15.15 0 0 7.57-9.52 8.19-15.76 4.2-2.66 3.27-4.09 6.04-6.75 9.31 13.82 11.97 39.3 7.78 39.3-16.68V42.68h-17.3Zm-78.6-19.44v72.45h17.19V58.74c2.97-1.84 8.9-1.23 8.9 3.38v33.57h17.19V62.23c0-15.45-13.82-21.9-26.1-18.93V23.24H26.52Zm489.01 92.51h.86v-6.61c.47-.2 1.33-.46 2.19-.46 1.01 0 2.08.54 2.08 1.7v5.37h.86v-5.37c0-1.7-1.47-2.52-2.94-2.56-1.03 0-2.07.29-3.04.63v7.3Zm-8.96-5.55v3.14c0 1.73 1.51 2.57 3.01 2.59 1.5-.02 3-.86 3-2.59v-3.14c0-1.73-1.5-2.57-3-2.59-1.5.02-3.01.86-3.01 2.59m3.01-1.71c1.02 0 2.14.5 2.14 1.71v3.14c0 1.21-1.12 1.73-2.14 1.73s-2.16-.52-2.16-1.73v-3.14c0-1.21 1.12-1.71 2.16-1.71m-6.84-.66h.86v7.93h-.86zm-.29-1.94c0 .38.31.69.69.69s.69-.31.69-.69-.31-.69-.69-.69-.69.31-.69.69m-2.38 9.13c-1.09.2-1.96-.66-1.96-1.76v-4.57h1.71v-.86h-1.71v-2.91h-.86v8.34c0 1.73 1.27 2.75 2.82 2.52V115Zm-5.89-5.51.72-.46c-.52-.92-1.61-1.36-2.71-1.36-1.48 0-3 .84-3 2.57v3.04c0 1.73 1.51 2.57 3 2.57 1.22 0 2.45-.55 2.86-1.7l-.78-.38c-.24.84-1.16 1.22-2.08 1.22-1.07 0-2.14-.54-2.14-1.68v-3.11c0-1.15 1.07-1.68 2.14-1.68.83 0 1.64.31 1.99.96Zm-7.59-1.7h-.86v6.76c-.47.2-1.33.47-2.19.47-1.04-.02-2.08-.57-2.08-1.68v-5.55h-.86v5.52c0 1.7 1.47 2.54 2.94 2.56.72 0 1.48-.15 2.19-.35.32-.09.61-.18.86-.26zm-9.25.02c-1.22.24-2.22 1.12-2.22 2.49v5.43h.86v-5.43c0-.93.67-1.47 1.47-1.65.38-.08.72-.09 1.1-.02v-.86c-.43-.05-.8-.06-1.21.03Zm-4.45 7.19c-1.09.2-1.96-.66-1.96-1.76v-4.57h1.71v-.86h-1.71v-2.91h-.86v8.34c0 1.73 1.27 2.75 2.82 2.52V115Zm-10.29-1.22-.66.41c.69 1.1 1.82 1.67 3.06 1.64 1.33-.03 2.62-.69 2.62-2.2-.02-1.55-1.29-2.07-2.52-2.3-.8-.15-2.05-.35-2.07-1.42 0-1.1 1.16-1.38 1.97-1.38.63 0 1.22.15 1.67.61l.55-.64c-.57-.54-1.41-.8-2.22-.8-1.27 0-2.82.6-2.82 2.2s1.47 2 2.75 2.23c.83.15 1.82.41 1.82 1.48.02 1.03-.89 1.38-1.76 1.39-.92.03-1.81-.43-2.4-1.24Zm-8.98 1.96h.86v-6.61c.47-.2 1.33-.46 2.19-.46 1.01 0 2.08.54 2.08 1.7v5.37h.86v-5.37c0-1.7-1.47-2.52-2.94-2.56-1.02 0-2.07.29-3.04.63v7.3Zm-8.96-5.55v3.14c0 1.73 1.51 2.57 3.01 2.59 1.5-.02 3-.86 3-2.59v-3.14c0-1.73-1.5-2.57-3-2.59-1.5.02-3.01.86-3.01 2.59m3.01-1.71c1.03 0 2.14.5 2.14 1.71v3.14c0 1.21-1.12 1.73-2.14 1.73s-2.16-.52-2.16-1.73v-3.14c0-1.21 1.12-1.71 2.16-1.71m-12.7-.38v4.47c0 3.89 6.3 4.33 7.76 1.33l-.81-.4c-1.1 2.22-6.04 1.9-6.04-.93v-4.47c0-2.83 4.94-3.15 6.04-.93v-.02l.81-.4c-1.47-3.04-7.76-2.46-7.76 1.35m-13.59 6.75v-9.03h2.71c1.58 0 3.15.64 3.15 2.26v4.51c0 1.61-1.58 2.25-3.15 2.25h-2.71Zm2.71.9c2.04 0 4.05-.93 4.05-3.15v-4.51c0-2.23-2.02-3.17-4.05-3.17h-3.61v10.83zm-14.35-7.79c0-1.68 1.68-2.42 3.37-2.43 1.7 0 3.41.72 3.41 2.43v4.73c-.02 3.24-6.78 3.24-6.78 0zm-.9 0v4.73c0 4.44 8.58 4.44 8.58 0v-4.73c0-4.44-8.58-4.44-8.58 0m-5.95 2.83h-3.18v-4.97h3.18c3.55-.05 3.63 4.97 0 4.97m-3.18.9h3.2c4.76 0 4.77-6.78-.02-6.78h-4.08v10.83h.9zm-9.14-3.87c-1.22.24-2.22 1.12-2.22 2.49v5.43h.86v-5.43c0-.93.67-1.47 1.47-1.65.38-.08.72-.09 1.1-.02v-.86c-.43-.05-.8-.06-1.21.03Zm-11.06 2.37v3.14c0 1.73 1.51 2.57 3.01 2.59 1.5-.02 3-.86 3-2.59v-3.14c0-1.73-1.5-2.57-3-2.59-1.5.02-3.01.86-3.01 2.59m3.01-1.71c1.03 0 2.14.5 2.14 1.71v3.14c0 1.21-1.12 1.73-2.14 1.73s-2.16-.52-2.16-1.73v-3.14c0-1.21 1.12-1.71 2.16-1.71m-5.14-2.77v-.86c-1.5.02-2.68.86-2.68 2.57v8.32h.86v-5.69h1.71v-.86h-1.71v-1.77c0-1.1.77-1.71 1.82-1.71m-20.62 10.07h.87v-6.66c.99-.76 3.87-.6 3.87 1.04v5.62h.84v-5.62c0-.95 1.06-1.41 1.9-1.42 1.07-.03 2.1.49 2.07 1.82v5.22h.87v-5.25c0-1.77-1.38-2.71-2.97-2.65-.81.03-1.73.32-2.31 1.04-1.21-1.56-3.76-1.16-5.14-.4v7.25Zm-7.88-3.5h5.14v-2.05c0-1.73-1.51-2.57-3-2.57s-3.01.84-3.01 2.57v3.15c0 1.73 1.51 2.57 3.01 2.57 1.15 0 2.31-.51 2.78-1.53l-.76-.38c-.32.72-1.18 1.06-2.02 1.06-1.09 0-2.16-.54-2.14-1.71v-1.1Zm4.28-2.08v1.33h-4.28v-1.33c-.02-1.15 1.06-1.68 2.14-1.68s2.14.54 2.14 1.68m-7.23 4.82c-1.09.2-1.96-.66-1.96-1.76v-4.57h1.71v-.86h-1.71v-2.91h-.86v8.34c0 1.73 1.27 2.75 2.82 2.52v-.77Zm-10.29-1.22-.66.41c.69 1.1 1.82 1.67 3.06 1.64 1.33-.03 2.62-.69 2.62-2.2-.02-1.55-1.29-2.07-2.52-2.3-.8-.15-2.05-.35-2.07-1.42 0-1.1 1.16-1.38 1.97-1.38.63 0 1.22.15 1.67.61l.55-.64c-.57-.54-1.41-.8-2.22-.8-1.27 0-2.82.6-2.82 2.2s1.47 2 2.75 2.23c.83.15 1.82.41 1.82 1.48.02 1.03-.89 1.38-1.76 1.39-.92.03-1.81-.43-2.4-1.24Zm-7.98 3.24-.61.57c1.58 1.73 5.78 1.45 5.78-1.55v-8.23h-.87v6.7c-.7.31-1.48.46-2.23.46-1.09-.02-2.19-.57-2.17-1.73v-5.43h-.89v5.4c0 1.71 1.53 2.66 3.09 2.65.76-.02 1.53-.09 2.2-.52v.7c0 2.08-3.32 2.25-4.3.98m-10.16-9.49c.18-2.54 4.93-2.57 5.88-.44l.81-.37c-1.29-2.94-7.45-2.72-7.57.78-.17 4.31 7.02 1.76 6.7 5.51-.21 2.6-5.08 2.63-6.04.44h-.02l-.81.37c1.32 3.03 7.59 2.8 7.77-.78.23-4.77-6.95-2.13-6.72-5.51m-8.96 7.02c-.67.28-1.44.43-2.16.44-1.06-.03-2.11-.57-2.1-1.68v-3.14c-.02-1.13 1.03-1.68 2.07-1.68.86 0 1.71.26 2.19.46zm-4.16 2.48-.58.54c1.47 1.62 5.58 1.41 5.58-1.48v-7.82c-.23-.08-.52-.17-.84-.26-.7-.2-1.47-.35-2.19-.35-1.47.02-2.92.86-2.92 2.54v3.09c0 1.67 1.48 2.57 2.98 2.56.73 0 1.45-.14 2.13-.47v.73c0 1.99-3.21 2.16-4.16.93Zm-9.74-1.3h.86v-6.61c.47-.2 1.33-.46 2.19-.46 1.01 0 2.08.54 2.08 1.7v5.37h.86v-5.37c0-1.7-1.47-2.52-2.94-2.56-1.02 0-2.07.29-3.04.63v7.3Zm-4.04-7.93v7.93h.86v-7.93zm-.29-1.94c0 .38.31.69.69.69s.69-.31.69-.69-.31-.69-.69-.69-.69.31-.69.69m-1.3-.17v-.86c-1.5.02-2.68.86-2.68 2.57v8.32h.86v-5.69h1.71v-.86h-1.71v-1.77c0-1.1.76-1.71 1.82-1.71m-11.53 4.48v3.14c0 1.73 1.51 2.57 3.01 2.59 1.5-.02 3-.86 3-2.59v-3.14c0-1.73-1.5-2.57-3-2.59-1.5.02-3.01.86-3.01 2.59m3.01-1.71c1.02 0 2.14.5 2.14 1.71v3.14c0 1.21-1.12 1.73-2.14 1.73s-2.16-.52-2.16-1.73v-3.14c0-1.21 1.12-1.71 2.16-1.71m-11.75 1.71v3.14c0 1.73 1.51 2.57 3.01 2.59 1.5-.02 3-.86 3-2.59v-3.14c0-1.73-1.5-2.57-3-2.59-1.5.02-3.01.86-3.01 2.59m3.01-1.71c1.02 0 2.14.5 2.14 1.71v3.14c0 1.21-1.12 1.73-2.14 1.73s-2.16-.52-2.16-1.73v-3.14c0-1.21 1.12-1.71 2.16-1.71m-6.15-.66c-1.22.24-2.22 1.12-2.22 2.49v5.43h.86v-5.43c0-.93.67-1.47 1.47-1.65.38-.08.72-.09 1.1-.02v-.86c-.43-.05-.8-.06-1.21.03Zm-10.03 6.78v-5.8c.7-.24 1.47-.26 2.2-.26 1.06 0 2.11.54 2.1 1.67v3.14c.02 1.13-1.06 1.68-2.13 1.7-.73 0-1.5-.17-2.17-.44Zm-.86 4.07h.86v-3.26c.67.31 1.41.47 2.16.49 1.51.02 3.01-.9 3.01-2.59v-3.08c0-1.71-1.48-2.54-2.97-2.56-1.04 0-2.08.2-3.06.54v10.45Zm-3.36-10.85c-1.22.24-2.22 1.12-2.22 2.49v5.43h.86v-5.43c0-.93.67-1.47 1.47-1.65.38-.08.72-.09 1.1-.02v-.86c-.43-.05-.8-.06-1.21.03Zm-9.96 4.45h5.14v-2.05c0-1.73-1.51-2.57-3-2.57s-3.01.84-3.01 2.57v3.15c0 1.73 1.51 2.57 3.01 2.57 1.15 0 2.31-.51 2.78-1.53l-.77-.38c-.32.72-1.18 1.06-2.02 1.06-1.09 0-2.16-.54-2.14-1.71v-1.1Zm4.28-2.08v1.33h-4.28v-1.33c-.02-1.15 1.06-1.68 2.14-1.68s2.14.54 2.14 1.68m-7.23 4.82c-1.09.2-1.96-.66-1.96-1.76v-4.57h1.71v-.86h-1.71v-2.91h-.86v8.34c0 1.73 1.27 2.75 2.82 2.52v-.77Zm-6.58-.05c-.75.18-1.56.23-2.34.21-1.12-.02-1.96-.7-1.96-1.91.02-2.26 2.89-1.94 4.3-1.39zm0-4.77v.89c-1.97-.9-5.14-.49-5.16 2.19 0 1.65 1.22 2.66 2.77 2.68 1.1.02 2.2-.15 3.24-.51v-5.25c0-2.77-4.01-3.18-5.63-1.41l.58.55c.98-1.25 4.19-1.09 4.19.86Zm-12.62-3.86h-.87l-2.75 8.74-2.85-10.16h-.95l3.14 10.83h1.32l2.54-7.99 2.52 7.99h1.32l3.14-10.83h-.95l-2.85 10.16-2.75-8.74Z" style="fill:#0e2638;stroke-width:0"/></svg>