<svg xmlns="http://www.w3.org/2000/svg" xmlns:xlink="http://www.w3.org/1999/xlink" xml:space="preserve" id="Ebene_1" x="0" y="0" viewBox="0 0 255.1 155.9"><style>.st0,.st2{fill-rule:evenodd;clip-rule:evenodd;fill:#fff}</style><path d="M62.7 71.5c9.9 1.8 10 13.8 0 15.2v-9.3c0-3.5-1.2-4-3.6-5.9z" class="st0"/><path d="M41.1 57.8v40.7h-4.8V57.8z" style="fill-rule:evenodd;clip-rule:evenodd;fill:#fff"/><path d="M50.7 57.8v7.6c.1 6.2 9.4 6.1 9.6 12.2v20.8h-4.8V79.1c-.3-4.8-9.5-5.2-9.6-12v-9.2h4.8z" class="st2"/><path d="M80.7 86.8H78V63.1h2.7v8.6c0 .2.2.3.3.3s.3-.1.6-.2.5-.2.5-.2c.4-.2.9-.3 1.5-.4s1.2-.2 1.7-.2c1.6 0 3 .5 4.1 1.6s1.7 2.4 1.7 4v9.9h-2.7v-8.7c0-1.2-.3-2.2-.8-3-.6-.9-1.5-1.4-2.7-1.4-1.1 0-2.1.4-3 1.3-.9.8-1.3 1.8-1.3 2.9zm26.4-5.2v6.5c0 1.7-.7 3-2.2 4-1.3.9-2.8 1.4-4.6 1.4v-2.6c1.1 0 2-.4 2.8-1.1s1.2-1.6 1.2-2.6V86c-1.2.7-2.5 1-4 1-1.7 0-3.2-.5-4.4-1.4-1.4-1.1-2.1-2.4-2.1-4V71.5h2.7v8.9c0 1.1.4 2.1 1.1 2.9s1.7 1.2 2.8 1.2 2-.4 2.8-1.1 1.2-1.6 1.2-2.6v-9.2h2.7zm17.8-18.5v16c0 2.2-.8 4.1-2.3 5.6S119.2 87 117 87s-3.9-.8-5.4-2.3-2.2-3.3-2.2-5.5.7-4.1 2.2-5.7c1.5-1.5 3.3-2.3 5.5-2.3.7 0 1.5.1 2.4.4s1.6.6 2.1 1l.4.4c.1 0 .1-.1.2-.2s.1-.2.1-.3V63zm-13.2 16.1c0 1.4.5 2.7 1.5 3.7 1 1.1 2.2 1.6 3.7 1.6s2.7-.5 3.8-1.6c1-1 1.5-2.3 1.5-3.8s-.5-2.8-1.5-3.8-2.3-1.5-3.7-1.5-2.7.5-3.7 1.6c-1.1 1-1.6 2.3-1.6 3.8m18.8 7.6h-2.7V71.6h2.7v.6c0 .6.1.9.2.9l.6-.3c.6-.4 1.1-.8 1.7-1.1.6-.2 1.2-.4 1.8-.4V74h-.5c-.8-.1-1.4.2-2.1.7-.6.4-1 .9-1.3 1.3s-.5 1-.5 1.8zm4.8-7.7c0-2.1.8-3.9 2.2-5.5 1.5-1.5 3.3-2.3 5.4-2.3s4.1.8 5.5 2.3c1.5 1.6 2.2 3.4 2.2 5.6s-.7 3.9-2.2 5.5c-1.5 1.5-3.3 2.3-5.4 2.3s-4-.8-5.5-2.3-2.2-3.4-2.2-5.6m2.5.1c0 1.5.5 2.7 1.5 3.8 1 1 2.3 1.6 3.8 1.6s2.7-.5 3.7-1.6 1.5-2.3 1.5-3.7-.5-2.7-1.5-3.8-2.2-1.6-3.7-1.6-2.7.5-3.8 1.6-1.5 2.2-1.5 3.7" class="st0"/><path d="M153.2 93.5V79c0-2.2.8-4 2.3-5.6 1.5-1.5 3.4-2.3 5.6-2.3s3.9.8 5.4 2.3 2.2 3.3 2.2 5.4-.7 4.1-2.2 5.6c-1.5 1.6-3.3 2.4-5.5 2.4-.8 0-1.6-.1-2.4-.4s-1.6-.6-2.1-1.1c-.3-.2-.4-.4-.5-.3-.1 0-.1.1-.2.2v8.2zm2.7-14.5c0 1.5.5 2.7 1.5 3.8 1 1 2.3 1.6 3.8 1.6s2.7-.5 3.7-1.6c1-1 1.4-2.3 1.4-3.8s-.5-2.7-1.5-3.7c-1-1.1-2.2-1.6-3.7-1.6s-2.8.5-3.8 1.6-1.4 2.2-1.4 3.7m18 7.8h-2.7V63.1h2.7v8.6c0 .2.2.3.3.3s.3-.1.6-.2.5-.2.5-.2c.4-.2.9-.3 1.5-.4s1.2-.2 1.7-.2c1.6 0 3 .5 4.1 1.6s1.6 2.4 1.6 4v9.9h-2.7v-8.7c0-1.2-.3-2.2-.8-3-.6-.9-1.5-1.4-2.7-1.4-1.1 0-2.1.4-3 1.3-.9.8-1.3 1.8-1.3 2.9zm13-7.7c0-2.1.8-3.9 2.2-5.5 1.5-1.5 3.3-2.3 5.4-2.3s4.1.8 5.5 2.3c1.5 1.6 2.2 3.4 2.2 5.6s-.7 3.9-2.2 5.5c-1.5 1.5-3.3 2.3-5.4 2.3s-4-.8-5.5-2.3-2.2-3.4-2.2-5.6m2.5.1c0 1.5.5 2.7 1.5 3.8 1 1 2.3 1.6 3.8 1.6s2.7-.5 3.7-1.6 1.5-2.3 1.5-3.7-.5-2.7-1.5-3.8-2.2-1.6-3.7-1.6-2.7.5-3.8 1.6-1.5 2.2-1.5 3.7m18 7.6h-2.7V76.7c0-1.7.7-3 2.1-4 1.3-.9 2.8-1.4 4.6-1.4s3.2.5 4.4 1.4c1.4 1.1 2.1 2.4 2.1 4v10.1h-2.7v-8.9c0-1.1-.4-2.1-1.1-2.9s-1.6-1.2-2.8-1.2c-1.1 0-2 .4-2.8 1.1s-1.2 1.6-1.2 2.6v9.3z" class="st2"/><defs><path id="SVGID_1_" d="M-502.3-86.2h436.5v314.6h-436.5z"/></defs><clipPath id="SVGID_00000148625187455493769990000012358259622616843706_"><use xlink:href="#SVGID_1_" style="overflow:visible"/></clipPath><path d="M-385.9 60.7c15.7 2.8 15.8 21.8 0 24V70c0-5.5-1.9-6.3-5.6-9.3z" style="clip-path:url(#SVGID_00000148625187455493769990000012358259622616843706_);fill-rule:evenodd;clip-rule:evenodd;fill:#fff"/><path d="M-427.6 39h7.6v64.3h-7.6z" style="clip-path:url(#SVGID_00000148625187455493769990000012358259622616843706_);fill-rule:evenodd;clip-rule:evenodd;fill:#fff"/><path d="M-404.9 39v12.1c.2 9.8 14.9 9.6 15.2 19.3v32.9h-7.6V72.6c-.4-7.6-15-8.2-15.2-19V39z" style="clip-path:url(#SVGID_00000148625187455493769990000012358259622616843706_);fill-rule:evenodd;clip-rule:evenodd;fill:#fff"/><path d="M-267.1 72.8q0 3.45 2.4 6c1.6 1.6 3.6 2.5 6 2.5 2.3 0 4.2-.8 5.8-2.5s2.4-3.6 2.4-5.9-.8-4.3-2.3-6c-1.6-1.7-3.5-2.5-5.9-2.5-2.3 0-4.3.8-5.9 2.5-1.6 1.6-2.5 3.5-2.5 5.9m-3.9-.1q0-4.95 3.6-8.7c2.4-2.4 5.2-3.7 8.6-3.7 3.5 0 6.4 1.2 8.7 3.7s3.5 5.4 3.5 8.9c0 3.3-1.2 6.2-3.5 8.6s-5.2 3.6-8.5 3.6c-3.4 0-6.3-1.2-8.7-3.7-2.5-2.3-3.7-5.3-3.7-8.7m-7.7 12.1h-4.3v-24h4.3v.9c0 .9.1 1.4.3 1.4l.9-.5c1-.6 1.8-1.3 2.7-1.7s1.9-.6 2.9-.6v4.3l-.8-.1c-1.2-.1-2.3.4-3.2 1.1-1 .7-1.6 1.4-2 2.1s-.8 1.6-.8 2.9zm-29.7-11.9c0 2.2.8 4.2 2.4 5.9s3.5 2.5 5.8 2.5 4.3-.8 5.9-2.5q2.4-2.4 2.4-6c0-2.4-.8-4.3-2.4-6-1.6-1.6-3.6-2.4-5.9-2.4s-4.3.8-5.9 2.5c-1.5 1.6-2.3 3.6-2.3 6m20.8-25.5v25.3c0 3.4-1.2 6.4-3.7 8.9s-5.4 3.7-8.9 3.7c-3.4 0-6.2-1.2-8.6-3.6-2.3-2.4-3.5-5.3-3.5-8.7 0-3.5 1.2-6.5 3.5-8.9s5.2-3.7 8.7-3.7c1.1 0 2.4.2 3.8.6s2.5.9 3.2 1.6l.6.6q.15 0 .3-.3c.1-.1.1-.3.1-.5v-15zm-28.1 29.2v10.3c0 2.6-1.1 4.7-3.4 6.4-2 1.5-4.5 2.2-7.2 2.2v-4.1c1.7 0 3.2-.6 4.4-1.7 1.3-1.1 1.9-2.5 1.9-4.2v-1.9c-1.9 1.1-4 1.6-6.4 1.6-2.7 0-5-.8-7-2.3-2.2-1.7-3.3-3.8-3.3-6.4v-16h4.3v14c0 1.8.6 3.3 1.7 4.6 1.1 1.2 2.6 1.9 4.4 1.9 1.7 0 3.2-.6 4.4-1.7 1.3-1.1 1.9-2.5 1.9-4.2V60.6h4.3zm-41.8 8.2h-4.3V47.4h4.3v13.7c0 .3.3.5.5.5s.5-.1 1-.3.7-.3.8-.3q1.05-.45 2.4-.6c.9-.2 1.9-.2 2.7-.2 2.6 0 4.8.9 6.5 2.6s2.6 3.8 2.6 6.4v15.6h-4.3V71c0-1.9-.4-3.5-1.3-4.8-1-1.5-2.4-2.3-4.3-2.3-1.7 0-3.3.7-4.7 2s-2.1 2.9-2.1 4.6v14.3z" style="clip-path:url(#SVGID_00000148625187455493769990000012358259622616843706_);fill-rule:evenodd;clip-rule:evenodd;fill:#fff"/><path d="M-157.1 84.8h-4.3v-16c0-2.6 1.1-4.7 3.4-6.4 2-1.5 4.5-2.2 7.2-2.2s5 .8 7 2.3c2.2 1.7 3.3 3.8 3.3 6.4v16h-4.3v-14c0-1.8-.6-3.3-1.7-4.6-1.1-1.2-2.6-1.9-4.4-1.9-1.7 0-3.2.6-4.4 1.7-1.3 1.1-1.9 2.5-1.9 4.2v14.5zm-28.5-12q0 3.45 2.4 6c1.6 1.6 3.6 2.5 6 2.5 2.3 0 4.2-.8 5.8-2.5s2.4-3.6 2.4-5.9-.8-4.3-2.3-6c-1.6-1.7-3.5-2.5-5.9-2.5-2.3 0-4.3.8-5.9 2.5-1.7 1.6-2.5 3.5-2.5 5.9m-4-.1q0-4.95 3.6-8.7c2.4-2.4 5.2-3.7 8.6-3.7 3.5 0 6.4 1.2 8.7 3.7s3.5 5.4 3.5 8.9c0 3.3-1.2 6.2-3.5 8.6s-5.2 3.6-8.5 3.6c-3.4 0-6.3-1.2-8.7-3.7-2.5-2.3-3.7-5.3-3.7-8.7M-210 84.8h-4.3V47.4h4.3v13.7c0 .3.3.5.5.5s.5-.1 1-.3.7-.3.8-.3q1.05-.45 2.4-.6c.9-.2 1.9-.2 2.7-.2 2.6 0 4.8.9 6.5 2.6s2.6 3.8 2.6 6.4v15.6h-4.3V71c0-1.9-.4-3.5-1.3-4.8-1-1.5-2.4-2.3-4.3-2.3-1.7 0-3.3.7-4.7 2s-2.1 2.9-2.1 4.6v14.3zm-28.5-12.2q0 3.45 2.4 6c1.6 1.6 3.6 2.5 6 2.5 2.3 0 4.3-.8 5.8-2.5 1.5-1.6 2.3-3.7 2.3-6s-.8-4.2-2.4-5.9-3.6-2.5-5.8-2.5c-2.4 0-4.4.8-5.9 2.5-1.7 1.5-2.4 3.5-2.4 5.9m-4.3 22.9v-23c0-3.4 1.2-6.4 3.7-8.8 2.4-2.4 5.4-3.6 8.8-3.6 3.3 0 6.2 1.2 8.6 3.6s3.6 5.3 3.6 8.6c0 3.4-1.2 6.4-3.5 8.9s-5.2 3.7-8.7 3.7c-1.2 0-2.5-.2-3.8-.6-1.4-.4-2.5-1-3.3-1.7-.4-.4-.6-.6-.8-.5q-.15 0-.3.3s0 .1-.1.2v12.9z" style="clip-path:url(#SVGID_00000148625187455493769990000012358259622616843706_);fill-rule:evenodd;clip-rule:evenodd;fill:#fff"/></svg>