<svg xmlns="http://www.w3.org/2000/svg" data-name="Ebene 1" viewBox="0 0 1000 1000"><path d="M360.37 510.98c0 16.28.04 32.57-.01 48.85-.04 11.6-.95 23.1-4.95 34.12-6.01 16.55-18.18 25.59-35.13 29.15-10.02 2.1-20.07 1.87-30.17 1.62-8.8-.22-17.31-1.94-25.62-4.82-4.94-1.71-9.54-4.1-13.93-6.9-1.77-1.13-2.42-3.52-1.3-5.37 3.85-6.35 7.79-12.64 11.71-18.94 1.11-1.79 2.34-3.51 3.45-5.29 1.85-2.97 3.06-3.52 6.19-2.22 4.9 2.04 9.82 3.97 15.09 4.88 6.98 1.21 13.99 2.08 20.91-.2 5.47-1.81 8.87-5.42 9.39-11.44.32-3.71.47-3.71-3.06-2.85-6.94 1.68-13.99 1.49-21.03 1.15-8.83-.42-16.94-3.09-24.34-8-7.77-5.16-12.83-12.33-16.29-20.85-2.05-5.06-3.1-10.34-3.88-15.67-.44-2.99-.17-6.1-.17-9.15 0-20.99-.02-41.98.03-62.97 0-1.38-.49-2.9.75-4.19.87-.9 1.71-1.52 3-1.52 4.33-.02 8.67-.12 13-.13 7.25-.02 14.51-.03 21.76.01 4.64.03 5.97 1.41 5.97 6.04v62.3c0 2.68.18 5.33.72 7.98 1.03 5.13 4.21 8.12 9.18 8.89 4.2.65 8.45.21 12.5-1.35 1.32-.51 1.8-1.22 1.8-2.74-.07-24.8-.05-49.6-.04-74.4 0-1.12.02-2.24.09-3.36.13-1.86 1.24-2.92 3.02-3.11 1.93-.2 3.88-.26 5.82-.26 9.5-.02 18.99-.02 28.49 0 5.96 0 7.07 1.11 7.07 6.98V511Zm-248.69-21.3v-79.34c0-5.08-.39-6.52 6.66-6.51 10.62.01 21.24 0 31.86 0 4.53 0 5.98 1.44 5.98 6 0 12.48.04 24.95-.03 37.43-.01 1.9.11 2.56 2.37 1.95 8.56-2.3 17.29-2.78 26.14-1.94 10.95 1.04 20.28 5.35 27.71 13.43 6.52 7.09 10.07 15.73 12.03 25.04 1.54 7.3 1.85 14.72 1.84 22.17-.03 20.55 0 41.09-.01 61.64 0 5.04-1.27 6.35-6.23 6.34-11.52 0-23.03-.03-34.55-.05-2.28 0-3.87-1.44-3.9-3.69-.07-4.41-.09-8.81-.09-13.22 0-18.38 0-36.76-.01-55.14 0-3.42-.32-6.81-1.41-10.09-1.57-4.71-5.79-7.17-10.6-7.49-3.82-.26-7.47-.14-11.15.89-1.63.46-2.15 1.1-2.15 2.84.07 26.45.05 52.89.05 79.34 0 5.24-1.36 6.61-6.58 6.61h-31.18c-6.21 0-6.74-.52-6.74-6.65v-79.57Zm266.76-27.58v-83.81c0-2.48.61-3.13 3.12-3.14 4.78-.02 9.57.05 14.35-.03 2.14-.03 3.15.97 3.38 2.96.08.66.03 1.34.03 2.01 0 22.93.03 45.86-.05 68.79 0 2.22.64 2.68 2.75 2.67q38.13-.105 76.26 0c2.11 0 2.77-.46 2.76-2.68-.09-23.23-.05-46.46-.05-69.69 0-3.82.23-4.05 4.07-4.05h12.56c3.45 0 4.08.62 4.08 4V545.4c0 3.82-.45 4.27-4.21 4.27h-12.34c-4.16 0-4.18-.02-4.18-4.27v-71.93c0-3.27.37-2.85-2.86-2.85-25.42-.01-50.84.02-76.26-.05-2.03 0-2.59.5-2.58 2.56.08 23.98.05 47.95.05 71.93 0 4.01-.61 4.62-4.66 4.62-4.19 0-8.37.01-12.56 0-3.29-.02-3.67-.4-3.67-3.77V462.1Zm209.2 34.15c-12.78 0-25.57.04-38.35-.04-1.87-.01-2.44.49-2.35 2.35.24 4.98-.41 10.02.72 14.95 2.2 9.62 8.21 15.88 17.44 18.96 11.49 3.84 22.83 2.59 33.93-1.76 6.05-2.37 11.64-5.58 16.79-9.53 1.48-1.14 2.76-1.07 3.87.33 2.62 3.32 5.21 6.67 7.73 10.07.89 1.19.29 2.25-.71 3.12-3.54 3.09-7.45 5.66-11.47 8.06-11.6 6.94-24.33 9.7-37.67 9.7-13.54 0-26.02-3.64-36.55-12.44-6.78-5.66-11.16-12.98-13.24-21.64-.87-3.62-1.06-7.29-1.06-10.97.01-15.46-.21-30.92.27-46.36.19-6.22 2.68-12.15 5.9-17.58 7.62-12.86 19.5-19.2 33.78-21.66 10.25-1.77 20.43-1.41 30.4 1.77 15.99 5.1 26.56 15.43 30.7 31.92 1.31 5.22 1.72 10.55 1.77 15.9.07 7.09.03 14.19 0 21.28 0 2.85-.74 3.57-3.58 3.57h-38.35Zm-9.2-16.59c9.86 0 19.73 0 29.59.01 1.13 0 2.02.03 1.97-1.57-.16-5.14.29-10.31-.6-15.42-1.67-9.63-6.59-16.85-15.75-20.79-8.03-3.45-16.39-3.79-24.82-1.92-11.47 2.53-18.62 9.53-21.1 21.12-1.17 5.47-.56 11-.8 16.51-.07 1.69.45 2.13 2.12 2.11 9.79-.08 19.58-.04 29.37-.04Zm148.07 6.81c0-7.72-.48-15.3.13-22.79.67-8.2 3.47-15.91 8.3-22.74 4.74-6.69 11.03-11.51 18.44-14.84 5.91-2.66 12.16-4.16 18.64-4.81 8.29-.83 16.48-.57 24.59 1.37 18.91 4.52 31.45 15.68 36.18 34.85.94 3.82 1.37 7.75 1.38 11.7.03 12.55.23 25.1-.06 37.64-.27 11.35-4.03 21.57-11.88 29.95-7.46 7.97-16.94 12.34-27.54 14.36-10.62 2.03-21.26 1.9-31.78-.71-13.1-3.25-23.63-10.21-30.54-22.03-2.97-5.07-4.6-10.63-5.32-16.46-1.05-8.54-.08-17.11-.55-25.48Zm20.52.31h.07c0 6.94-.16 13.89.04 20.83.33 11.5 7.16 20.77 18.06 24.53 9.68 3.34 19.49 3.31 29.3.43 11.46-3.37 19.2-12.92 19.44-24.86.28-13.73.44-27.49-.06-41.21-.43-11.72-6.19-20.44-17.43-24.81-8.44-3.28-17.22-3.58-26.02-1.73-14.9 3.12-23.15 13.2-23.39 28.46-.1 6.12-.02 12.25-.02 18.37Zm-98.91 3.04c0-18.83.03-37.65-.04-56.48 0-2.01.81-3.15 2.52-3.94 8.53-3.95 17.55-6.17 26.8-7.61 6.59-1.02 13.23-1.17 19.87-.91 6.53.26 13.04.93 19.52 1.84 1.37.19 2.38.87 2.59 2.58.51 4.17.25 8.35.18 12.51-.03 2.07-1.39 3.17-3.46 2.66-3.24-.8-6.55-.93-9.81-1.17-6.19-.46-12.38-.88-18.66-.23-5.97.62-11.68 1.91-17.37 3.64-1.64.5-2.14 1.17-2.13 2.89.06 33.24.04 66.49.04 99.73 0 3.81-.55 4.35-4.4 4.35-4.19 0-8.37.03-12.56-.01-2.62-.03-3.09-.55-3.09-3.16v-56.7Zm240.21-62.93c-.38 2.64-2.03 5.85-6.43 7.12-1.97.57-3.42-.43-5.55-2.97-2.09-2.49-4.43-4.79-6.6-7.23-1.47-1.65-3.21-3.06-4.5-4.91-1.38-1.99-1.89-1.96-3.55-.28-4.32 4.35-8.63 8.7-12.96 13.03-2.26 2.26-4.5 2.86-7.05 1.61-2.55-1.24-4.02-3.51-4.28-6.25-.16-1.77.89-3.34 2.24-4.64 7.13-6.89 14.24-13.81 21.34-20.73 2.46-2.4 2.46-2.43 4.85.05 6.88 7.15 13.74 14.32 20.64 21.45 1.03 1.07 1.59 2.3 1.85 3.75m0-39c-.38 2.64-2.03 5.85-6.43 7.12-1.97.57-3.42-.43-5.55-2.97-2.09-2.49-4.43-4.79-6.6-7.23-1.47-1.65-3.21-3.06-4.5-4.91-1.38-1.99-1.89-1.96-3.55-.28-4.32 4.35-8.63 8.7-12.96 13.03-2.26 2.26-4.5 2.86-7.05 1.61-2.55-1.24-4.02-3.51-4.28-6.25-.16-1.77.89-3.34 2.24-4.64 7.13-6.89 14.24-13.81 21.34-20.73 2.46-2.4 2.46-2.43 4.85.05 6.88 7.15 13.74 14.32 20.64 21.45 1.03 1.07 1.59 2.3 1.85 3.75" style="stroke-width:0;fill:#fff"/></svg>