<svg xmlns="http://www.w3.org/2000/svg" viewBox="0 0 255.1 155.9"><style>.st0{fill:#008bd2}</style><path d="M62.7 71.5c9.9 1.8 10 13.8 0 15.2v-9.3c0-3.5-1.2-4-3.6-5.9zM41.1 57.8v40.7h-4.8V57.8z" class="st0"/><path d="M50.7 57.8v7.6c.1 6.2 9.4 6.1 9.6 12.2v20.8h-4.8V79.1c-.3-4.8-9.5-5.2-9.6-12v-9.2h4.8zm30 29H78V63.1h2.7v8.6c0 .2.2.3.3.3s.3-.1.6-.2.5-.2.5-.2c.4-.2.9-.3 1.5-.4s1.2-.2 1.7-.2c1.6 0 3 .5 4.1 1.6s1.7 2.4 1.7 4v9.9h-2.7v-8.7c0-1.2-.3-2.2-.8-3-.6-.9-1.5-1.4-2.7-1.4-1.1 0-2.1.4-3 1.3-.9.8-1.3 1.8-1.3 2.9zm26.4-5.2v6.5c0 1.7-.7 3-2.2 4-1.3.9-2.8 1.4-4.6 1.4v-2.6c1.1 0 2-.4 2.8-1.1s1.2-1.6 1.2-2.6V86c-1.2.7-2.5 1-4 1-1.7 0-3.2-.5-4.4-1.4-1.4-1.1-2.1-2.4-2.1-4V71.5h2.7v8.9c0 1.1.4 2.1 1.1 2.9s1.7 1.2 2.8 1.2 2-.4 2.8-1.1 1.2-1.6 1.2-2.6v-9.2h2.7zm17.8-18.5v16c0 2.2-.8 4.1-2.3 5.6S119.2 87 117 87s-3.9-.8-5.4-2.3-2.2-3.3-2.2-5.5.7-4.1 2.2-5.7c1.5-1.5 3.3-2.3 5.5-2.3.7 0 1.5.1 2.4.4s1.6.6 2.1 1l.4.4c.1 0 .1-.1.2-.2s.1-.2.1-.3V63zm-13.2 16.1c0 1.4.5 2.7 1.5 3.7 1 1.1 2.2 1.6 3.7 1.6s2.7-.5 3.8-1.6c1-1 1.5-2.3 1.5-3.8s-.5-2.8-1.5-3.8-2.3-1.5-3.7-1.5-2.7.5-3.7 1.6c-1.1 1-1.6 2.3-1.6 3.8m18.8 7.6h-2.7V71.6h2.7v.6c0 .6.1.9.2.9l.6-.3c.6-.4 1.1-.8 1.7-1.1.6-.2 1.2-.4 1.8-.4V74h-.5c-.8-.1-1.4.2-2.1.7-.6.4-1 .9-1.3 1.3s-.5 1-.5 1.8zm4.8-7.7c0-2.1.8-3.9 2.2-5.5 1.5-1.5 3.3-2.3 5.4-2.3s4.1.8 5.5 2.3c1.5 1.6 2.2 3.4 2.2 5.6s-.7 3.9-2.2 5.5c-1.5 1.5-3.3 2.3-5.4 2.3s-4-.8-5.5-2.3-2.2-3.4-2.2-5.6m2.5.1c0 1.5.5 2.7 1.5 3.8 1 1 2.3 1.6 3.8 1.6s2.7-.5 3.7-1.6 1.5-2.3 1.5-3.7-.5-2.7-1.5-3.8-2.2-1.6-3.7-1.6-2.7.5-3.8 1.6-1.5 2.2-1.5 3.7m15.4 14.3V79c0-2.2.8-4 2.3-5.6 1.5-1.5 3.4-2.3 5.6-2.3s3.9.8 5.4 2.3 2.2 3.3 2.2 5.4-.7 4.1-2.2 5.6c-1.5 1.6-3.3 2.4-5.5 2.4-.8 0-1.6-.1-2.4-.4s-1.6-.6-2.1-1.1c-.3-.2-.4-.4-.5-.3-.1 0-.1.1-.2.2v8.2zm2.7-14.5c0 1.5.5 2.7 1.5 3.8 1 1 2.3 1.6 3.8 1.6s2.7-.5 3.7-1.6c1-1 1.4-2.3 1.4-3.8s-.5-2.7-1.5-3.7c-1-1.1-2.2-1.6-3.7-1.6s-2.8.5-3.8 1.6-1.4 2.2-1.4 3.7m18 7.8h-2.7V63.1h2.7v8.6c0 .2.2.3.3.3s.3-.1.6-.2.5-.2.5-.2c.4-.2.9-.3 1.5-.4s1.2-.2 1.7-.2c1.6 0 3 .5 4.1 1.6s1.6 2.4 1.6 4v9.9h-2.7v-8.7c0-1.2-.3-2.2-.8-3-.6-.9-1.5-1.4-2.7-1.4-1.1 0-2.1.4-3 1.3-.9.8-1.3 1.8-1.3 2.9zm13-7.7c0-2.1.8-3.9 2.2-5.5 1.5-1.5 3.3-2.3 5.4-2.3s4.1.8 5.5 2.3c1.5 1.6 2.2 3.4 2.2 5.6s-.7 3.9-2.2 5.5c-1.5 1.5-3.3 2.3-5.4 2.3s-4-.8-5.5-2.3-2.2-3.4-2.2-5.6m2.5.1c0 1.5.5 2.7 1.5 3.8 1 1 2.3 1.6 3.8 1.6s2.7-.5 3.7-1.6 1.5-2.3 1.5-3.7-.5-2.7-1.5-3.8-2.2-1.6-3.7-1.6-2.7.5-3.8 1.6-1.5 2.2-1.5 3.7m18 7.6h-2.7V76.7c0-1.7.7-3 2.1-4 1.3-.9 2.8-1.4 4.6-1.4s3.2.5 4.4 1.4c1.4 1.1 2.1 2.4 2.1 4v10.1h-2.7v-8.9c0-1.1-.4-2.1-1.1-2.9s-1.6-1.2-2.8-1.2c-1.1 0-2 .4-2.8 1.1s-1.2 1.6-1.2 2.6v9.3z" class="st0"/></svg>