<svg xmlns="http://www.w3.org/2000/svg" data-name="Ebene 1" viewBox="0 0 600 243.77"><path d="M227.08 7.53h47.79v188.6h-47.79zm-18.93 89.63v99.38H176.8v-38.2c-2.31 2.88-4.76 5.64-7.38 8.17-2.31 2.32-4.76 4.5-7.34 6.51-16.15 13.02-36.71 20.85-59.15 20.85-52.26 0-94.65-42.44-94.65-94.79s42.4-94.79 94.65-94.79c45.27 0 83.08 31.77 92.42 74.25h-43.57c-8.03-19.1-26.89-32.47-48.85-32.47-29.21 0-52.96 23.73-52.96 53.01s23.75 53.02 52.96 53.02c10.87 0 20.91-3.24 29.29-8.83 3.19-2.14 6.16-4.59 8.82-7.34 2.18-2.32 4.19-4.76 5.94-7.38h-38.11V97.17h99.27Zm221.6 99.39h-47.29v-14.74s-41.1 19.04-64.08 13.01c-14.69-3.85-23.67-14.18-24.16-28.98-.95-28.83-.28-57.71-.28-87.22h48.52c0 16.87-.01 33.53 0 50.18 0 6.25-.22 12.52.19 18.75.76 11.62 6.38 17 17.33 17.2 11.83.2 19.86-5.72 20.58-16.71.8-12.12.34-24.33.38-36.5.04-10.78 0-21.56 0-32.94h48.82l-.02 117.96ZM588.43 78.66 521.06 240.8H471.8l18.56-44.67-48.82-117.47h49.25l24.2 58.23 24.2-58.23z" style="fill:#88a9c3;stroke-width:0"/></svg>