<?xml version="1.0" encoding="utf-8"?>
<!-- Logo Hydrophon - BLAU (#008BD2) -->
<svg version="1.1" xmlns="http://www.w3.org/2000/svg" viewBox="0 0 255.1 155.9">
<style>.st0{fill:#008BD2;}</style>
<path class="st0" d="M62.7,71.5c9.9,1.8,10,13.8,0,15.2v-9.3c0-3.5-1.2-4-3.6-5.9L62.7,71.5z"/>
<polygon class="st0" points="41.1,57.8 41.1,98.5 36.3,98.5 36.3,57.8"/>
<path class="st0" d="M50.7,57.8v7.6c0.1,6.2,9.4,6.1,9.6,12.2v20.8h-4.8V79.1c-0.3-4.8-9.5-5.2-9.6-12v-9.2H50.7z"/>
<path class="st0" d="M80.7,86.8H78V63.1h2.7v8.2c0,0.2,0,0.3,0,0.4c0,0.2,0.2,0.3,0.3,0.3c0.1,0,0.3-0.1,0.6-0.2s0.5-0.2,0.5-0.2c0.4-0.2,0.9-0.3,1.5-0.4s1.2-0.2,1.7-0.2c1.6,0,3,0.5,4.1,1.6s1.7,2.4,1.7,4v9.9h-2.7v-8.7c0-1.2-0.3-2.2-0.8-3c-0.6-0.9-1.5-1.4-2.7-1.4c-1.1,0-2.1,0.4-3,1.3c-0.9,0.8-1.3,1.8-1.3,2.9L80.7,86.8z M107.1,81.6v6.5c0,1.7-0.7,3-2.2,4c-1.3,0.9-2.8,1.4-4.6,1.4v-2.6c1.1,0,2-0.4,2.8-1.1c0.8-0.7,1.2-1.6,1.2-2.6V86c-1.2,0.7-2.5,1-4,1c-1.7,0-3.2-0.5-4.4-1.4c-1.4-1.1-2.1-2.4-2.1-4V71.5h2.7v8.9c0,1.1,0.4,2.1,1.1,2.9s1.7,1.2,2.8,1.2c1.1,0,2-0.4,2.8-1.1c0.8-0.7,1.2-1.6,1.2-2.6v-9.2h2.7L107.1,81.6z M124.9,63.1v16c0,2.2-0.8,4.1-2.3,5.6s-3.4,2.3-5.6,2.3s-3.9-0.8-5.4-2.3c-1.5-1.5-2.2-3.3-2.2-5.5s0.7-4.1,2.2-5.7c1.5-1.5,3.3-2.3,5.5-2.3c0.7,0,1.5,0.1,2.4,0.4c0.9,0.3,1.6,0.6,2.1,1c0.1,0.1,0.3,0.3,0.4,0.4c0.1,0,0.1-0.1,0.2-0.2c0.1-0.1,0.1-0.2,0.1-0.3v-9.5L124.9,63.1z M111.7,79.2c0,1.4,0.5,2.7,1.5,3.7c1,1.1,2.2,1.6,3.7,1.6s2.7-0.5,3.8-1.6c1-1,1.5-2.3,1.5-3.8s-0.5-2.8-1.5-3.8c-1-1-2.3-1.5-3.7-1.5s-2.7,0.5-3.7,1.6C112.2,76.4,111.7,77.7,111.7,79.2z M130.5,86.8h-2.7V71.6h2.7v0.6c0,0.6,0.1,0.9,0.2,0.9l0.6-0.3c0.6-0.4,1.1-0.8,1.7-1.1c0.6-0.2,1.2-0.4,1.8-0.4V74l-0.5,0c-0.8-0.1-1.4,0.2-2.1,0.7c-0.6,0.4-1,0.9-1.3,1.3s-0.5,1-0.5,1.8L130.5,86.8z M135.3,79.1c0-2.1,0.8-3.9,2.2-5.5c1.5-1.5,3.3-2.3,5.4-2.3s4.1,0.8,5.5,2.3c1.5,1.6,2.2,3.4,2.2,5.6s-0.7,3.9-2.2,5.5c-1.5,1.5-3.3,2.3-5.4,2.3s-4-0.8-5.5-2.3S135.3,81.3,135.3,79.1z M137.8,79.2c0,1.5,0.5,2.7,1.5,3.8c1,1,2.3,1.6,3.8,1.6s2.7-0.5,3.7-1.6c1-1.1,1.5-2.3,1.5-3.7s-0.5-2.7-1.5-3.8c-1-1.1-2.2-1.6-3.7-1.6s-2.7,0.5-3.8,1.6S137.8,77.7,137.8,79.2z M153.2,93.5V79c0-2.2,0.8-4,2.3-5.6c1.5-1.5,3.4-2.3,5.6-2.3s3.9,0.8,5.4,2.3s2.2,3.3,2.2,5.4s-0.7,4.1-2.2,5.6c-1.5,1.6-3.3,2.4-5.5,2.4c-0.8,0-1.6-0.1-2.4-0.4s-1.6-0.6-2.1-1.1c-0.3-0.2-0.4-0.4-0.5-0.3c-0.1,0-0.1,0.1-0.2,0.2c0,0,0,0.1,0,0.1v8.1L153.2,93.5z M155.9,79c0,1.5,0.5,2.7,1.5,3.8c1,1,2.3,1.6,3.8,1.6s2.7-0.5,3.7-1.6c1-1,1.4-2.3,1.4-3.8s-0.5-2.7-1.5-3.7c-1-1.1-2.2-1.6-3.7-1.6s-2.8,0.5-3.8,1.6S155.9,77.5,155.9,79z M173.9,86.8h-2.7V63.1h2.7v8.2c0,0.2,0,0.3,0,0.4c0,0.2,0.2,0.3,0.3,0.3c0.1,0,0.3-0.1,0.6-0.2s0.5-0.2,0.5-0.2c0.4-0.2,0.9-0.3,1.5-0.4s1.2-0.2,1.7-0.2c1.6,0,3,0.5,4.1,1.6s1.6,2.4,1.6,4v9.9h-2.7v-8.7c0-1.2-0.3-2.2-0.8-3c-0.6-0.9-1.5-1.4-2.7-1.4c-1.1,0-2.1,0.4-3,1.3c-0.9,0.8-1.3,1.8-1.3,2.9L173.9,86.8z M186.9,79.1c0-2.1,0.8-3.9,2.2-5.5c1.5-1.5,3.3-2.3,5.4-2.3s4.1,0.8,5.5,2.3c1.5,1.6,2.2,3.4,2.2,5.6s-0.7,3.9-2.2,5.5c-1.5,1.5-3.3,2.3-5.4,2.3s-4-0.8-5.5-2.3S186.9,81.3,186.9,79.1z M189.4,79.2c0,1.5,0.5,2.7,1.5,3.8c1,1,2.3,1.6,3.8,1.6s2.7-0.5,3.7-1.6c1-1.1,1.5-2.3,1.5-3.7s-0.5-2.7-1.5-3.8c-1-1.1-2.2-1.6-3.7-1.6s-2.7,0.5-3.8,1.6S189.4,77.7,189.4,79.2z M207.4,86.8h-2.7V76.7c0-1.7,0.7-3,2.1-4c1.3-0.9,2.8-1.4,4.6-1.4s3.2,0.5,4.4,1.4c1.4,1.1,2.1,2.4,2.1,4v10.1h-2.7v-8.9c0-1.1-0.4-2.1-1.1-2.9s-1.6-1.2-2.8-1.2c-1.1,0-2,0.4-2.8,1.1c-0.8,0.7-1.2,1.6-1.2,2.6V86.8z"/>
</svg>
