<?xml version="1.0" encoding="utf-8"?>
<!-- Generator: Adobe Illustrator 27.8.0, SVG Export Plug-In . SVG Version: 6.00 Build 0)  -->
<svg version="1.1" id="Ebene_1" xmlns="http://www.w3.org/2000/svg" xmlns:xlink="http://www.w3.org/1999/xlink" x="0px" y="0px"
	 viewBox="0 0 255.1 155.9" style="enable-background:new 0 0 255.1 155.9;" xml:space="preserve">
<style type="text/css">
	.st0{fill-rule:evenodd;clip-rule:evenodd;fill:#000000;}
	.st1{fill-rule:evenodd;clip-rule:evenodd;fill:#000000;}
	.st2{fill-rule:evenodd;clip-rule:evenodd;fill:#000000;}
	
		.st3{clip-path:url(#SVGID_00000091724073726713427390000005421211057927536550_);fill-rule:evenodd;clip-rule:evenodd;fill:#000000;}
	
		.st4{clip-path:url(#SVGID_00000091724073726713427390000005421211057927536550_);fill-rule:evenodd;clip-rule:evenodd;fill:#000000;}
	
		.st5{clip-path:url(#SVGID_00000091724073726713427390000005421211057927536550_);fill-rule:evenodd;clip-rule:evenodd;fill:#000000;}
</style>
<path class="st0" d="M62.7,71.5c9.9,1.8,10,13.8,0,15.2v-9.3c0-3.5-1.2-4-3.6-5.9L62.7,71.5L62.7,71.5L62.7,71.5z"/>
<polygon class="st1" points="41.1,57.8 41.1,98.5 36.3,98.5 36.3,57.8 41.1,57.8 "/>
<path class="st2" d="M50.7,57.8v7.6c0.1,6.2,9.4,6.1,9.6,12.2v20.8h-4.8V79.1c-0.3-4.8-9.5-5.2-9.6-12v-9.2H50.7z"/>
<path class="st0" d="M80.7,86.8H78V63.1h2.7v8.2c0,0.2,0,0.3,0,0.4c0,0.2,0.2,0.3,0.3,0.3c0.1,0,0.3-0.1,0.6-0.2s0.5-0.2,0.5-0.2
	c0.4-0.2,0.9-0.3,1.5-0.4s1.2-0.2,1.7-0.2c1.6,0,3,0.5,4.1,1.6s1.7,2.4,1.7,4v9.9h-2.7v-8.7c0-1.2-0.3-2.2-0.8-3
	c-0.6-0.9-1.5-1.4-2.7-1.4c-1.1,0-2.1,0.4-3,1.3c-0.9,0.8-1.3,1.8-1.3,2.9L80.7,86.8L80.7,86.8L80.7,86.8z M107.1,81.6v6.5
	c0,1.7-0.7,3-2.2,4c-1.3,0.9-2.8,1.4-4.6,1.4v-2.6h0c1.1,0,2-0.4,2.8-1.1c0.8-0.7,1.2-1.6,1.2-2.6V86c-1.2,0.7-2.5,1-4,1
	c-1.7,0-3.2-0.5-4.4-1.4c-1.4-1.1-2.1-2.4-2.1-4V71.5h2.7v8.9c0,1.1,0.4,2.1,1.1,2.9s1.7,1.2,2.8,1.2c1.1,0,2-0.4,2.8-1.1
	c0.8-0.7,1.2-1.6,1.2-2.6v-9.2h2.7L107.1,81.6L107.1,81.6L107.1,81.6z M124.9,63.1v16c0,2.2-0.8,4.1-2.3,5.6s-3.4,2.3-5.6,2.3
	s-3.9-0.8-5.4-2.3c-1.5-1.5-2.2-3.3-2.2-5.5s0.7-4.1,2.2-5.7c1.5-1.5,3.3-2.3,5.5-2.3c0.7,0,1.5,0.1,2.4,0.4c0.9,0.3,1.6,0.6,2.1,1
	c0.1,0.1,0.3,0.3,0.4,0.4c0.1,0,0.1-0.1,0.2-0.2c0.1-0.1,0.1-0.2,0.1-0.3v-9.5L124.9,63.1L124.9,63.1z M111.7,79.2
	c0,1.4,0.5,2.7,1.5,3.7c1,1.1,2.2,1.6,3.7,1.6s2.7-0.5,3.8-1.6c1-1,1.5-2.3,1.5-3.8s-0.5-2.8-1.5-3.8c-1-1-2.3-1.5-3.7-1.5
	s-2.7,0.5-3.7,1.6C112.2,76.4,111.7,77.7,111.7,79.2L111.7,79.2L111.7,79.2z M130.5,86.8h-2.7V71.6h2.7v0.6c0,0.6,0.1,0.9,0.2,0.9
	l0.6-0.3c0.6-0.4,1.1-0.8,1.7-1.1c0.6-0.2,1.2-0.4,1.8-0.4V74l-0.5,0c-0.8-0.1-1.4,0.2-2.1,0.7c-0.6,0.4-1,0.9-1.3,1.3
	s-0.5,1-0.5,1.8L130.5,86.8L130.5,86.8L130.5,86.8z M135.3,79.1c0-2.1,0.8-3.9,2.2-5.5c1.5-1.5,3.3-2.3,5.4-2.3s4.1,0.8,5.5,2.3
	c1.5,1.6,2.2,3.4,2.2,5.6s-0.7,3.9-2.2,5.5c-1.5,1.5-3.3,2.3-5.4,2.3s-4-0.8-5.5-2.3S135.3,81.3,135.3,79.1L135.3,79.1L135.3,79.1z
	 M137.8,79.2c0,1.5,0.5,2.7,1.5,3.8c1,1,2.3,1.6,3.8,1.6s2.7-0.5,3.7-1.6c1-1.1,1.5-2.3,1.5-3.7s-0.5-2.7-1.5-3.8
	c-1-1.1-2.2-1.6-3.7-1.6s-2.7,0.5-3.8,1.6S137.8,77.7,137.8,79.2L137.8,79.2L137.8,79.2z"/>
<path class="st2" d="M153.2,93.5V79c0-2.2,0.8-4,2.3-5.6c1.5-1.5,3.4-2.3,5.6-2.3s3.9,0.8,5.4,2.3s2.2,3.3,2.2,5.4s-0.7,4.1-2.2,5.6
	c-1.5,1.6-3.3,2.4-5.5,2.4c-0.8,0-1.6-0.1-2.4-0.4s-1.6-0.6-2.1-1.1c-0.3-0.2-0.4-0.4-0.5-0.3c-0.1,0-0.1,0.1-0.2,0.2
	c0,0,0,0.1,0,0.1v8.1L153.2,93.5L153.2,93.5z M155.9,79c0,1.5,0.5,2.7,1.5,3.8c1,1,2.3,1.6,3.8,1.6s2.7-0.5,3.7-1.6
	c1-1,1.4-2.3,1.4-3.8s-0.5-2.7-1.5-3.7c-1-1.1-2.2-1.6-3.7-1.6s-2.8,0.5-3.8,1.6S155.9,77.5,155.9,79L155.9,79L155.9,79z
	 M173.9,86.8h-2.7V63.1h2.7v8.2c0,0.2,0,0.3,0,0.4c0,0.2,0.2,0.3,0.3,0.3c0.1,0,0.3-0.1,0.6-0.2s0.5-0.2,0.5-0.2
	c0.4-0.2,0.9-0.3,1.5-0.4s1.2-0.2,1.7-0.2c1.6,0,3,0.5,4.1,1.6s1.6,2.4,1.6,4v9.9h-2.7v-8.7c0-1.2-0.3-2.2-0.8-3
	c-0.6-0.9-1.5-1.4-2.7-1.4c-1.1,0-2.1,0.4-3,1.3c-0.9,0.8-1.3,1.8-1.3,2.9L173.9,86.8L173.9,86.8L173.9,86.8z M186.9,79.1
	c0-2.1,0.8-3.9,2.2-5.5c1.5-1.5,3.3-2.3,5.4-2.3s4.1,0.8,5.5,2.3c1.5,1.6,2.2,3.4,2.2,5.6s-0.7,3.9-2.2,5.5
	c-1.5,1.5-3.3,2.3-5.4,2.3s-4-0.8-5.5-2.3S186.9,81.3,186.9,79.1L186.9,79.1L186.9,79.1z M189.4,79.2c0,1.5,0.5,2.7,1.5,3.8
	c1,1,2.3,1.6,3.8,1.6s2.7-0.5,3.7-1.6c1-1.1,1.5-2.3,1.5-3.7s-0.5-2.7-1.5-3.8c-1-1.1-2.2-1.6-3.7-1.6s-2.7,0.5-3.8,1.6
	S189.4,77.7,189.4,79.2L189.4,79.2L189.4,79.2z M207.4,86.8h-2.7V76.7c0-1.7,0.7-3,2.1-4c1.3-0.9,2.8-1.4,4.6-1.4s3.2,0.5,4.4,1.4
	c1.4,1.1,2.1,2.4,2.1,4v10.1h-2.7v-8.9c0-1.1-0.4-2.1-1.1-2.9s-1.6-1.2-2.8-1.2c-1.1,0-2,0.4-2.8,1.1c-0.8,0.7-1.2,1.6-1.2,2.6V86.8
	L207.4,86.8L207.4,86.8z"/>
<g>
	<g>
		<defs>
			<rect id="SVGID_1_" x="-502.3" y="-86.2" width="436.5" height="314.6"/>
		</defs>
		<clipPath id="SVGID_00000148625187455493769990000012358259622616843706_">
			<use xlink:href="#SVGID_1_"  style="overflow:visible;"/>
		</clipPath>
		
			<path style="clip-path:url(#SVGID_00000148625187455493769990000012358259622616843706_);fill-rule:evenodd;clip-rule:evenodd;fill:#000000;" d="
			M-385.9,60.7c15.7,2.8,15.8,21.8,0,24V70c0-5.5-1.9-6.3-5.6-9.3L-385.9,60.7z"/>
		
			<rect x="-427.6" y="39" style="clip-path:url(#SVGID_00000148625187455493769990000012358259622616843706_);fill-rule:evenodd;clip-rule:evenodd;fill:#000000;" width="7.6" height="64.3"/>
		
			<path style="clip-path:url(#SVGID_00000148625187455493769990000012358259622616843706_);fill-rule:evenodd;clip-rule:evenodd;fill:#000000;" d="
			M-404.9,39v12.1c0.2,9.8,14.9,9.6,15.2,19.3v32.9h-7.6V72.6c-0.4-7.6-15-8.2-15.2-19V39H-404.9z"/>
		
			<path style="clip-path:url(#SVGID_00000148625187455493769990000012358259622616843706_);fill-rule:evenodd;clip-rule:evenodd;fill:#000000;" d="
			M-267.1,72.8c0,2.3,0.8,4.3,2.4,6c1.6,1.6,3.6,2.5,6,2.5c2.3,0,4.2-0.8,5.8-2.5c1.6-1.7,2.4-3.6,2.4-5.9c0-2.3-0.8-4.3-2.3-6
			c-1.6-1.7-3.5-2.5-5.9-2.5c-2.3,0-4.3,0.8-5.9,2.5C-266.2,68.5-267.1,70.4-267.1,72.8 M-271,72.7c0-3.3,1.2-6.2,3.6-8.7
			c2.4-2.4,5.2-3.7,8.6-3.7c3.5,0,6.4,1.2,8.7,3.7c2.3,2.5,3.5,5.4,3.5,8.9c0,3.3-1.2,6.2-3.5,8.6c-2.3,2.4-5.2,3.6-8.5,3.6
			c-3.4,0-6.3-1.2-8.7-3.7C-269.8,79.1-271,76.1-271,72.7z M-278.7,84.8h-4.3v-24h4.3c0,0.4,0,0.7,0,0.9c0,0.9,0.1,1.4,0.3,1.4
			l0.9-0.5c1-0.6,1.8-1.3,2.7-1.7c0.9-0.4,1.9-0.6,2.9-0.6v4.3l-0.8-0.1c-1.2-0.1-2.3,0.4-3.2,1.1c-1,0.7-1.6,1.4-2,2.1
			c-0.4,0.7-0.8,1.6-0.8,2.9v1V84.8z M-308.4,72.9c0,2.2,0.8,4.2,2.4,5.9c1.6,1.7,3.5,2.5,5.8,2.5c2.3,0,4.3-0.8,5.9-2.5
			c1.6-1.6,2.4-3.6,2.4-6c0-2.4-0.8-4.3-2.4-6c-1.6-1.6-3.6-2.4-5.9-2.4c-2.3,0-4.3,0.8-5.9,2.5C-307.6,68.5-308.4,70.5-308.4,72.9z
			 M-287.6,47.4v25.3c0,3.4-1.2,6.4-3.7,8.9c-2.5,2.5-5.4,3.7-8.9,3.7c-3.4,0-6.2-1.2-8.6-3.6c-2.3-2.4-3.5-5.3-3.5-8.7
			c0-3.5,1.2-6.5,3.5-8.9c2.3-2.4,5.2-3.7,8.7-3.7c1.1,0,2.4,0.2,3.8,0.6c1.4,0.4,2.5,0.9,3.2,1.6c0.2,0.2,0.4,0.4,0.6,0.6
			c0.1,0,0.2-0.1,0.3-0.3c0.1-0.1,0.1-0.3,0.1-0.5V47.4H-287.6z M-315.7,76.6v10.3c0,2.6-1.1,4.7-3.4,6.4c-2,1.5-4.5,2.2-7.2,2.2
			v-4.1h0c1.7,0,3.2-0.6,4.4-1.7c1.3-1.1,1.9-2.5,1.9-4.2v-1.9c-1.9,1.1-4,1.6-6.4,1.6c-2.7,0-5-0.8-7-2.3c-2.2-1.7-3.3-3.8-3.3-6.4
			v-16h4.3v14c0,1.8,0.6,3.3,1.7,4.6c1.1,1.2,2.6,1.9,4.4,1.9c1.7,0,3.2-0.6,4.4-1.7c1.3-1.1,1.9-2.5,1.9-4.2v-3.7V60.6h4.3v10.8
			V76.6z M-357.5,84.8h-4.3V47.4h4.3v13c0,0.2,0,0.5,0,0.7c0,0.3,0.3,0.5,0.5,0.5c0.2,0,0.5-0.1,1-0.3c0.5-0.2,0.7-0.3,0.8-0.3
			c0.7-0.3,1.5-0.5,2.4-0.6c0.9-0.2,1.9-0.2,2.7-0.2c2.6,0,4.8,0.9,6.5,2.6c1.7,1.7,2.6,3.8,2.6,6.4v15.6h-4.3V71
			c0-1.9-0.4-3.5-1.3-4.8c-1-1.5-2.4-2.3-4.3-2.3c-1.7,0-3.3,0.7-4.7,2c-1.4,1.3-2.1,2.9-2.1,4.6V84.8z"/>
		
			<path style="clip-path:url(#SVGID_00000148625187455493769990000012358259622616843706_);fill-rule:evenodd;clip-rule:evenodd;fill:#000000;" d="
			M-157.1,84.8h-4.3v-16c0-2.6,1.1-4.7,3.4-6.4c2-1.5,4.5-2.2,7.2-2.2c2.7,0,5,0.8,7,2.3c2.2,1.7,3.3,3.8,3.3,6.4v16h-4.3v-14
			c0-1.8-0.6-3.3-1.7-4.6c-1.1-1.2-2.6-1.9-4.4-1.9c-1.7,0-3.2,0.6-4.4,1.7c-1.3,1.1-1.9,2.5-1.9,4.2V84.8z M-185.6,72.8
			c0,2.3,0.8,4.3,2.4,6c1.6,1.6,3.6,2.5,6,2.5c2.3,0,4.2-0.8,5.8-2.5c1.6-1.7,2.4-3.6,2.4-5.9c0-2.3-0.8-4.3-2.3-6
			c-1.6-1.7-3.5-2.5-5.9-2.5c-2.3,0-4.3,0.8-5.9,2.5C-184.8,68.5-185.6,70.4-185.6,72.8z M-189.6,72.7c0-3.3,1.2-6.2,3.6-8.7
			c2.4-2.4,5.2-3.7,8.6-3.7c3.5,0,6.4,1.2,8.7,3.7c2.3,2.5,3.5,5.4,3.5,8.9c0,3.3-1.2,6.2-3.5,8.6c-2.3,2.4-5.2,3.6-8.5,3.6
			c-3.4,0-6.3-1.2-8.7-3.7C-188.4,79.1-189.6,76.1-189.6,72.7z M-210,84.8h-4.3V47.4h4.3v13c0,0.2,0,0.5,0,0.7
			c0,0.3,0.3,0.5,0.5,0.5c0.2,0,0.5-0.1,1-0.3c0.5-0.2,0.7-0.3,0.8-0.3c0.7-0.3,1.5-0.5,2.4-0.6c0.9-0.2,1.9-0.2,2.7-0.2
			c2.6,0,4.8,0.9,6.5,2.6c1.7,1.7,2.6,3.8,2.6,6.4v15.6h-4.3V71c0-1.9-0.4-3.5-1.3-4.8c-1-1.5-2.4-2.3-4.3-2.3c-1.7,0-3.3,0.7-4.7,2
			c-1.4,1.3-2.1,2.9-2.1,4.6V84.8z M-238.5,72.6c0,2.3,0.8,4.3,2.4,6c1.6,1.6,3.6,2.5,6,2.5c2.3,0,4.3-0.8,5.8-2.5
			c1.5-1.6,2.3-3.7,2.3-6c0-2.3-0.8-4.2-2.4-5.9c-1.6-1.7-3.6-2.5-5.8-2.5c-2.4,0-4.4,0.8-5.9,2.5
			C-237.8,68.2-238.5,70.2-238.5,72.6z M-242.8,95.5v-23c0-3.4,1.2-6.4,3.7-8.8c2.4-2.4,5.4-3.6,8.8-3.6c3.3,0,6.2,1.2,8.6,3.6
			c2.4,2.4,3.6,5.3,3.6,8.6c0,3.4-1.2,6.4-3.5,8.9c-2.3,2.5-5.2,3.7-8.7,3.7c-1.2,0-2.5-0.2-3.8-0.6c-1.4-0.4-2.5-1-3.3-1.7
			c-0.4-0.4-0.6-0.6-0.8-0.5c-0.1,0-0.2,0.1-0.3,0.3c0,0,0,0.1-0.1,0.2v12.9H-242.8z"/>
	</g>
</g>
</svg>
